<?xml version="1.0" encoding="utf-8"?>
<!-- Generator: Adobe Illustrator 23.0.2, SVG Export Plug-In . SVG Version: 6.00 Build 0)  -->
<svg version="1.1" id="Layer_1" xmlns="http://www.w3.org/2000/svg" xmlns:xlink="http://www.w3.org/1999/xlink" x="0px" y="0px"
	 viewBox="0 0 512 512" style="enable-background:new 0 0 512 512;" xml:space="preserve">
<style type="text/css">
	.st0{display:none;}
	.st1{display:inline;}
	.st2{fill:#7C7B7B;}
	.st3{fill:#7D7C7C;}
	.st4{fill:#464646;}
	.st5{display:inline;fill:#464646;}
</style>
<g id="Symbols" class="st0">
	<g id="Header1" transform="translate(-710.000000, -40.000000)" class="st1">
		<g id="Group-2-Copy" transform="translate(711.000000, 41.000000)">
			<g id="Stroke-3">
				<path class="st2" d="M490.7,469.5L334.3,313C364,280.3,382,236.9,382,189.4C382,87.7,299.3,5,197.6,5S13.2,87.7,13.2,189.4
					s82.7,184.4,184.4,184.4c39.2,0,75.5-12.3,105.4-33.2l158.3,158.3c4.1,4.1,9.4,6.1,14.7,6.1c5.3,0,10.7-2,14.7-6.1
					C498.9,490.8,498.9,477.6,490.7,469.5z M54.8,189.4c0-78.7,64-142.8,142.8-142.8c78.7,0,142.8,64.1,142.8,142.8
					s-64,142.8-142.8,142.8C118.9,332.2,54.8,268.1,54.8,189.4z"/>
			</g>
		</g>
	</g>
</g>
<g class="st0">
	<g class="st1">
		<rect x="6" y="93.5" class="st3" width="500" height="25"/>
	</g>
	<g class="st1">
		<rect x="6" y="243.5" class="st3" width="500" height="25"/>
	</g>
	<g class="st1">
		<rect x="6" y="393.5" class="st3" width="500" height="25"/>
	</g>
</g>
<g class="st0">
	<g class="st1">
		<g>
			<path class="st4" d="M256,265.6c29.6,0,58.6-18,81.5-50.6c20.2-28.8,32.3-64.4,32.3-95.3C369.8,57,318.7,6,256,6
				S142.3,57,142.3,119.7c0,30.9,12.1,66.5,32.3,95.3C197.4,247.7,226.4,265.6,256,265.6z M256,24.5c52.5,0,95.2,42.7,95.2,95.2
				c0,26.8-11.1,59.2-28.9,84.6C303.2,231.5,279.1,247,256,247s-47.2-15.6-66.3-42.7c-17.8-25.4-28.9-57.8-28.9-84.6
				C160.8,67.3,203.5,24.5,256,24.5z"/>
			<path class="st4" d="M422.7,316.5c-20-31.1-48.3-55.9-81.6-71.8c-3.5-1.7-7.8-1-10.5,1.8c-22.3,22.3-48.1,34.1-74.6,34.1
				c-26.4,0-52.2-11.8-74.5-34.1c-2.8-2.8-7-3.5-10.5-1.8c-33.3,15.9-61.6,40.7-81.6,71.8c-20.6,31.9-31.5,69-31.5,107.2v0.2
				c0,2.6,1.1,5.1,3,6.9C114.4,479.3,183.7,506,256,506s141.6-26.7,195.1-75.3c1.9-1.8,3-4.3,3-6.9v-0.2
				C454.2,385.5,443.3,348.5,422.7,316.5z M256,487.5c-66.3,0-129.9-24-179.6-67.7c0.7-33.2,10.5-65.3,28.5-93.2
				c17-26.4,40.5-47.8,68.3-62.3c24.8,22.8,53.3,34.8,82.8,34.8s58-12,82.8-34.8c27.7,14.4,51.3,35.9,68.3,62.3
				c17.9,27.8,27.7,60,28.5,93.2C385.9,463.4,322.3,487.5,256,487.5z"/>
		</g>
	</g>
</g>
<g class="st0">
	<path class="st5" d="M475.7,72c-24.2-23.6-57.6-35.4-100.3-35.4c-11.8,0-23.9,2-36.1,6.1c-12.3,4.1-23.7,9.6-34.3,16.6
		c-10.6,7-19.7,13.5-27.3,19.6c-7.6,6.1-14.9,12.6-21.7,19.4c-6.9-6.9-14.1-13.3-21.7-19.4c-7.6-6.1-16.7-12.6-27.3-19.6
		s-22-12.5-34.3-16.6s-24.3-6.1-36.1-6.1C93.9,36.6,60.5,48.4,36.3,72S0,128.4,0,170.3c0,12.8,2.2,25.9,6.7,39.4
		c4.5,13.5,9.6,25,15.3,34.6c5.7,9.5,12.2,18.8,19.4,27.9c7.2,9,12.5,15.3,15.9,18.7c3.3,3.4,6,5.9,7.9,7.4l178.3,172
		c3.4,3.4,7.6,5.1,12.6,5.1s9.1-1.7,12.6-5.1l178-171.4c43.6-43.6,65.4-86.5,65.4-128.6C512,128.4,499.9,95.6,475.7,72z M421.7,272
		L256,431.7l-166-160c-35.6-35.6-53.4-69.4-53.4-101.4c0-15.4,2-29,6.1-40.9c4.1-11.8,9.3-21.2,15.7-28.1c6.4-7,14.1-12.6,23.3-17
		c9.1-4.4,18.1-7.3,26.9-8.9c8.8-1.5,18.1-2.3,28-2.3c9.9,0,20.6,2.4,32,7.3s22,11,31.6,18.3s17.9,14.2,24.7,20.6
		c6.9,6.4,12.6,12.2,17.1,17.6c3.4,4.2,8.1,6.3,14,6.3c5.9,0,10.6-2.1,14-6.3c4.6-5.3,10.3-11.2,17.1-17.6
		c6.9-6.4,15.1-13.2,24.7-20.6c9.6-7.3,20.1-13.4,31.6-18.3c11.4-4.9,22.1-7.3,32-7.3s19.2,0.8,28,2.3s17.7,4.5,26.9,8.9
		c9.1,4.4,16.9,10,23.3,17s11.6,16.3,15.7,28.1s6.1,25.4,6.1,40.9C475.4,202.3,457.5,236.2,421.7,272z"/>
</g>
<g>
	<g id="Bag">
		<g>
			<path d="M443.5,145.2c-0.7-8-7.5-14.2-15.6-14.2h-78.1V99.8C349.9,48,307.8,6,256.1,6s-93.7,42-93.7,93.8V131H84.2
				c-8.1,0-14.8,6.2-15.6,14.2L37.4,489c-0.4,4.4,1.1,8.7,4,11.9c3,3.3,7.1,5.1,11.5,5.1h406.3c4.4,0,8.6-1.8,11.5-5.1
				c2.9-3.2,4.4-7.6,4-11.9L443.5,145.2z M193.6,99.8c0-34.5,28-62.5,62.5-62.5s62.5,28,62.5,62.5V131h-125V99.8z M70.1,474.8
				l28.4-312.5h63.9v35.6c-9.3,5.4-15.6,15.4-15.6,26.9c0,17.3,14,31.3,31.3,31.3s31.3-14,31.3-31.3c0-11.5-6.3-21.5-15.6-26.9
				v-35.6h125v35.6c-9.3,5.4-15.6,15.4-15.6,26.9c0,17.3,14,31.3,31.3,31.3s31.3-14,31.3-31.3c0-11.5-6.3-21.5-15.6-26.9v-35.6h63.9
				l28,312.5H70.1z"/>
		</g>
	</g>
</g>
</svg>
